<?xml version="1.0" encoding="UTF-8"?>
<svg version="1.1" viewBox="0 0 395 193" xmlns="http://www.w3.org/2000/svg" xmlns:cc="http://creativecommons.org/ns#" xmlns:dc="http://purl.org/dc/elements/1.1/" xmlns:rdf="http://www.w3.org/1999/02/22-rdf-syntax-ns#">
 <metadata>
  <rdf:RDF>
   <cc:Work rdf:about="">
    <dc:format>image/svg+xml</dc:format>
    <dc:type rdf:resource="http://purl.org/dc/dcmitype/StillImage"/>
    <dc:title/>
   </cc:Work>
  </rdf:RDF>
 </metadata>
 <path d="m388.62 156.3c-1.633-0.059-4.667-0.175-8.867-0.175-0.058 0-0.175 0-0.175 0.175v12.366c0 0.175 0.059 0.292 0.175 0.292 0.759 0 6.65 0 8.167-0.058 2.742-0.117 3.908-0.234 4.492-0.409-0.292 1.167-0.467 3.384-0.467 4.434-0.7-0.35-1.575-0.583-3.558-0.758-1.75-0.117-7.642-0.175-8.634-0.175-0.116 0-0.175 0.116-0.175 0.233v3.325c0 9.625 0.117 10.967 0.35 11.2 0.175 0.117 0.642 0.233 1.109 0.292 1.225 0.117 2.858 0.233 5.075 0.233 4.725 0 7.058-0.35 8.575-0.992-0.409 1.109-0.875 3.034-1.05 4.084-0.175 0.058-0.759 0.117-2.684 0.117-7.058 0-10.966-0.292-13.125-0.292-1.575 0-2.858 0.058-3.5 0.117 0.175-1.75 0.467-7.351 0.467-14.351v-8.75c0-8.05-0.234-12.892-0.584-14.292 0.7 0.117 2.159 0.117 3.326 0.117h11.55c1.108 0 3.208-0.058 4.141-0.292-0.116 0.875-0.35 2.684-0.35 4.434-0.7-0.409-1.75-0.642-4.258-0.875zm-16.815-86.905c-5.175 0-10.275 1.35-14.025 4.575-3.525 3.074-6.3 8.174-6.3 14.624 0 13.574 8.175 22.349 22.949 22.349 2.925 0 6.6-0.3 8.625-1.5 0.15-0.15 0.225-0.525 0.225-1.8v-7.725c0-3.599-0.375-8.024-0.75-9.374 0.9 0.075 2.325 0.075 3.45 0.075 2.025 0 3.15-0.075 3.9-0.225-0.15 1.575-0.375 6.45-0.375 11.024v6.3 4.725c-4.275 1.875-10.8 2.775-16.575 2.775-8.849 0-16.799-2.7-21.974-8.325-3.674-3.825-6.449-9.674-6.449-16.949 0-10.5 5.324-16.574 10.274-19.874 6.375-4.35 14.325-4.8 19.049-4.8 8.1 0 14.625 2.325 16.275 2.625-0.3 1.05-0.825 4.35-0.825 6.824-1.5-1.874-7.35-5.324-17.474-5.324zm-37.846 42.148c0 3.375-0.15 3.75-0.525 3.75-0.45 0-1.35-0.75-5.55-4.8-5.7-5.325-24.599-26.774-30.899-33.449 0.075 13.575 0.225 32.249 0.825 37.274-0.975-0.15-2.025-0.15-2.999-0.15-0.675 0-3.075 0.15-3.45 0.225 0.45-5.4 0.675-34.049 0.675-45.373 0-3.45 0.15-3.75 0.6-3.75 0.3 0 0.825 0.525 2.175 1.8 6.449 6.375 28.348 31.049 34.348 35.923-0.075-9.599-0.3-29.773-0.825-36.748 0.525 0.075 1.8 0.15 2.7 0.15 1.425 0 3.225-0.15 3.675-0.225-0.375 3.825-0.75 20.174-0.825 32.324 0 4.124 0.075 10.349 0.075 13.049zm-41.619-62.035c-9.674 0-14.174-0.375-17.549-0.375-1.725 0-2.925 0-3.675 0.15 0.15-2.25 0.45-9.449 0.45-18.449v-11.249c0-9.075-0.225-16.5-0.675-18.375 0.6 0.15 2.1 0.15 3.15 0.15 1.65 0 3.6-0.075 4.35-0.225-0.225 2.4-0.6 9.375-0.6 18.3v10.874c0 13.125 0.15 14.175 0.525 14.475 0.225 0.15 0.75 0.3 1.575 0.375 1.275 0.15 3.6 0.225 6.45 0.225 7.124 0 10.049-0.525 11.624-1.275-0.525 1.275-1.275 4.199-1.575 5.249-0.375 0.075-1.05 0.15-4.05 0.15zm-14.457 16.662c-0.15 2.325-0.45 9.449-0.45 18.449v11.25c0 8.024 0.15 16.574 0.6 18.449-0.6-0.075-2.025-0.15-3.15-0.15-1.5 0-3.525 0.15-4.2 0.225 0.3-2.25 0.525-10.275 0.525-18.524v-11.25c0-9.075-0.225-16.649-0.675-18.299 0.675 0.075 2.1 0.075 3.075 0.075 2.1 0 3.75-0.15 4.275-0.225zm-22.398-16.812c-1.05-2.925-4.5-11.174-6.6-16.199-0.074-0.15-0.074-0.15-0.299-0.15h-17.175c-0.15 0-0.3 0-0.3 0.15-2.025 5.475-4.95 13.125-5.7 16.124-0.749-0.15-1.349-0.15-2.849-0.15-1.575 0-3.225 0.15-3.825 0.225 1.65-3.374 4.125-8.999 6.899-15.374l12.9-31.049c0.9-1.95 1.275-2.7 1.65-2.7 0.3 0 0.675 0.525 1.65 2.7 0.75 1.575 7.274 15.9 13.199 28.799 3.075 6.825 6.75 14.999 8.475 17.549-1.275-0.075-2.55-0.15-3.3-0.15-1.725 0-3.825 0.075-4.725 0.225zm-15.899-38.548-6.9 17.924c-0.075 0.15-0.075 0.225 0.15 0.225h14.175c0.225 0 0.225-0.075 0.225-0.225zm-13.767 55.285c0.3 1.35 1.2 4.35 3.375 9.824 3.45 8.775 7.425 18.375 11.475 28.199 3.674-8.174 8.924-20.024 12.224-28.499 2.25-5.549 2.775-8.099 3.075-9.374 0.75 0.15 1.875 0.15 2.475 0.15 2.025 0 3.6-0.075 4.725-0.225-1.05 1.5-3.6 5.925-6 11.399-1.725 3.975-3.45 7.2-6.375 13.875-4.125 9.224-6.675 14.999-9.224 20.399-1.5 3.075-1.8 3.375-2.1 3.375-0.45 0-0.75-0.525-1.875-3.225-4.8-11.475-9.6-22.724-14.475-34.199-2.475-6.074-4.35-9.599-5.774-11.549 1.124 0.15 3.224 0.15 3.524 0.15 2.025 0 4.275-0.15 4.95-0.3zm-10.023-30.836c0 7.425-5.7 14.399-17.474 14.399-4.575 0-7.95-0.375-9.45-0.45-1.125-0.075-3.075 0-4.125 0.075 0.225-2.624 0.525-10.199 0.525-18.449v-11.249c0-9.075-0.375-16.05-0.825-18.375 0.9 0.075 2.175 0.15 3.225 0.15 2.625 0 5.325-0.225 9.45-0.225 11.399 0 14.174 6.375 14.174 11.1 0 5.325-3.375 8.625-6.299 10.199 5.699 1.65 10.799 5.625 10.799 12.825zm-10.275-21.674c0-5.325-3.374-8.775-9.899-8.775-2.175 0-3.675 0.15-4.05 0.375-0.15 0-0.225 0.15-0.225 0.3v15.6c0 0.15 0.075 0.225 0.3 0.3 1.2 0.075 6.45 0.15 7.425 0.15 1.2 0 1.8-0.075 2.625-0.6 2.549-1.65 3.824-4.65 3.824-7.35zm-8.324 11.774c-1.725-0.15-5.025-0.15-5.625-0.075-0.15 0.075-0.225 0.15-0.225 0.3v5.25c0 10.35 0.15 13.425 0.3 13.65 0.675 0.6 3.15 1.35 6.975 1.35 5.399 0 10.649-3.075 10.649-9.825 0-2.775-0.825-5.7-4.2-8.25-2.099-1.65-4.799-2.25-7.874-2.4zm-26.739 147.82c-8 8.167-23.667 19.334-52.668 19.334-7 0-13.334-0.334-19.334-0.834-8-0.833-14.667-1.667-21.834-1.167 0.333-7 1-22.167 1-47.001v-30.668c0-31.167-0.833-44.001-1.5-47.834 1.667 0.166 5.333 0.333 8 0.333 4 0 13.501-0.667 24.501-0.667 21.667 0 47.001 2.667 63.502 19.501 8.333 8.667 15.834 22.334 15.834 42.168 0 21.334-8.167 37.001-17.501 46.835zm-9.834-80.503c-11.5-14-31-19.334-52.334-19.334-6.167 0-12.834 0.667-15.334 1.334-0.5 0.333-0.667 0.666-0.667 1.166-0.333 3.167-0.333 19.334-0.333 36.501v25.335c0 17.667 0.166 31.334 0.333 35.834 0.167 3.333 0.333 5.167 1 5.667 2.333 1.833 12.334 3.833 26.001 3.833s26.834-3.333 36.168-11.333c9.5-8.001 17-22.501 17-41.168 0-14.334-3.167-27.168-11.834-37.835zm10.556-43.392c-0.6-0.075-2.025-0.15-3.15-0.15-1.5 0-3.525 0.15-4.2 0.225 0.3-2.25 0.525-10.274 0.525-18.524v-11.249c0-9.075-0.225-16.65-0.675-18.3 0.675 0.075 2.1 0.075 3.075 0.075 2.1 0 3.75-0.15 4.275-0.225-0.15 2.325-0.45 9.45-0.45 18.45v11.249c0 8.025 0.15 16.574 0.6 18.449zm-25.539-3.149c-3.674-3.525-9.749-12.45-12.674-16.275-0.3-0.3-0.45-0.45-0.9-0.45h-8.625c-0.225 0-0.3 0-0.3 0.225v2.025c0 7.95 0.3 14.774 0.6 17.624-0.6-0.15-1.875-0.15-3.075-0.15-1.275 0-3.449 0.075-4.199 0.225 0.3-2.325 0.6-10.274 0.6-18.524v-11.249c0-9.075-0.15-16.2-0.825-18.375 1.275 0.15 2.175 0.15 3.3 0.15 1.274 0 6.524-0.3 8.924-0.3 4.725 0 9 0.6 11.85 2.325 3.375 2.025 5.849 5.775 5.849 10.5 0 5.475-2.774 9.974-8.024 13.499 4.2 5.4 8.924 11.7 13.424 16.5 2.775 3 4.95 4.649 6.075 5.174-0.825 0.375-2.925 0.525-4.5 0.525-3.3 0-4.875-0.75-7.5-3.449zm-5.699-30.599c0-6.75-4.5-10.8-11.775-10.8-2.025 0-3.9 0.075-4.8 0.3-0.225 0.075-0.225 0.15-0.225 0.45v19.274c0 0.375 0.075 0.45 0.225 0.45 1.275 0.3 4.5 0.525 7.95 0.525 1.95 0 3-0.225 3.75-0.75 2.625-1.8 4.875-5.024 4.875-9.449zm-53.152-2.194c-6-0.333-13.833-0.666-26.5-0.666v67.835c0 21.167 0.666 42.168 1.333 48.168-1.667-0.333-4.333-0.333-6.833-0.333-3.834 0-7.334 0.166-10.167 0.5 0.833-5.667 1.333-26.668 1.333-48.335v-67.835c-7.667 0-12 0-23.001 0.333-11 0.5-18 1.167-22.334 2.667 0.834-2.667 2.334-10.334 2.667-13.834 4 1 10.167 1.5 24.501 1.5h54.168c9.667 0 21.834-0.5 24.834-1.333-0.833 3.666-1.5 9.5-1.667 14.5-2.666-1.667-7.333-2.5-18.334-3.167zm100.1 171.31c1.808 0 3.091 1.4 3.091 3.209 0 1.866-1.283 3.208-3.15 3.208-2.158 0-3.091-1.692-3.091-3.15 0-1.4 0.875-3.267 3.15-3.267zm23.258-70.332c-0.6-0.075-2.025-0.15-3.15-0.15-1.5 0-3.525 0.15-4.2 0.225 0.3-2.25 0.525-10.275 0.525-18.524v-11.25c0-9.075-0.225-16.649-0.675-18.299 0.675 0.075 2.1 0.075 3.075 0.075 2.1 0 3.75-0.15 4.275-0.225-0.15 2.325-0.45 9.449-0.45 18.449v11.25c0 8.024 0.15 16.574 0.6 18.449zm4.228 37.84c11.9 0 19.542 8.167 19.542 18.492 0 11.55-7.583 20.359-20.125 20.359-13.534 0.058-19.659-10.151-19.659-19.076 0-10.325 7.059-19.775 20.242-19.775zm0.292 35.817c6.067 0 13.825-4.025 13.825-16.042 0-10.033-6.475-16.742-14.992-16.742-8.575 0-14 6.359-13.942 15.576 0.059 10.091 6.125 17.208 15.109 17.208zm28.232-35.817c0.234 0 0.642 0.408 1.692 1.4 5.017 4.958 22.05 24.15 26.717 27.942-0.058-7.467-0.233-23.159-0.641-28.584 0.408 0.059 1.4 0.117 2.1 0.117 1.108 0 2.508-0.117 2.858-0.175-0.292 2.975-0.583 15.692-0.642 25.142 0 3.208 0.059 8.05 0.059 10.15 0 2.625-0.117 2.917-0.409 2.917-0.35 0-1.05-0.583-4.316-3.733-4.434-4.142-19.134-20.826-24.034-26.018 0.058 10.559 0.175 25.084 0.641 28.993-0.758-0.117-1.575-0.117-2.333-0.117-0.525 0-2.392 0.117-2.683 0.175 0.35-4.2 0.525-26.484 0.525-35.292 0-2.684 0.116-2.917 0.466-2.917zm43.371 0.758c0.467 0.117 1.633 0.117 2.45 0.117 1.283 0 2.8-0.058 3.383-0.175-0.175 1.867-0.466 7.292-0.466 14.233v8.459c0 10.208 0.116 11.025 0.408 11.258 0.175 0.117 0.583 0.234 1.225 0.292 0.992 0.117 2.8 0.175 5.017 0.175 5.542 0 7.817-0.408 9.042-0.992-0.409 0.992-0.992 3.267-1.225 4.084-0.292 0.058-0.817 0.117-3.15 0.117-7.525 0-11.026-0.292-13.651-0.292-1.341 0-2.275 0-2.858 0.117 0.117-1.75 0.35-7.351 0.35-14.351v-8.75c0-7.058-0.175-12.833-0.525-14.292zm27.066 0.059c0.525 0.058 1.633 0.058 2.392 0.058 1.633 0 2.916-0.117 3.325-0.175-0.117 1.808-0.35 7.35-0.35 14.35v8.75c0 6.242 0.116 12.892 0.466 14.351-0.466-0.059-1.575-0.117-2.45-0.117-1.166 0-2.741 0.117-3.266 0.175 0.233-1.75 0.408-7.992 0.408-14.409v-8.75c0-7.058-0.175-12.95-0.525-14.233zm17.5-0.817c0.233 0 0.641 0.408 1.692 1.4 5.016 4.958 22.05 24.15 26.717 27.942-0.059-7.467-0.234-23.159-0.642-28.584 0.408 0.059 1.4 0.117 2.1 0.117 1.108 0 2.508-0.117 2.858-0.175-0.291 2.975-0.583 15.692-0.641 25.142 0 3.208 0.058 8.05 0.058 10.15 0 2.625-0.117 2.917-0.408 2.917-0.35 0-1.05-0.583-4.317-3.733-4.433-4.142-19.134-20.826-24.034-26.018 0.058 10.559 0.175 25.084 0.642 28.993-0.759-0.117-1.575-0.117-2.333-0.117-0.526 0-2.392 0.117-2.684 0.175 0.35-4.2 0.525-26.484 0.525-35.292 0-2.684 0.117-2.917 0.467-2.917z"/>
</svg>
